<svg width="110" height="100" viewBox="0 0 110 100" fill="none" xmlns="http://www.w3.org/2000/svg">
<path d="M50 20V0H60V20H50V20M83.25 33.75L76.25 26.75L90.375 12.5L97.375 19.625L83.25 33.75V33.75M90 60V50H110V60H90V60M90.375 97.375L76.25 83.25L83.25 76.25L97.5 90.25L90.375 97.375V97.375M26.75 33.75L12.625 19.625L19.75 12.5L33.75 26.75L26.75 33.75V33.75M25 90H47.5C49.5833 90 51.3542 89.2708 52.8125 87.8125C54.2708 86.3542 55 84.5833 55 82.5C55 80.4167 54.2917 78.6458 52.875 77.1875C51.4583 75.7292 49.7083 75 47.625 75H41.25L38.75 69C37.5833 66.25 35.75 64.0625 33.25 62.4375C30.75 60.8125 28 60 25 60C20.8333 60 17.2917 61.4583 14.375 64.375C11.4583 67.2917 10 70.8333 10 75C10 79.1667 11.4583 82.7083 14.375 85.625C17.2917 88.5417 20.8333 90 25 90V90M25 100C18.0833 100 12.1875 97.5625 7.3125 92.6875C2.4375 87.8125 0 81.9167 0 75C0 68.0833 2.4375 62.1875 7.3125 57.3125C12.1875 52.4375 18.0833 50 25 50C30 50 34.5625 51.3542 38.6875 54.0625C42.8125 56.7708 45.875 60.4167 47.875 65V65V65C52.7083 65 56.7708 66.7917 60.0625 70.375C63.3542 73.9583 65 78.25 65 83.25C64.8333 88 63.0625 91.9792 59.6875 95.1875C56.3125 98.3958 52.25 100 47.5 100H25V100M65 83.25C64.5833 81.5833 64.1667 79.9583 63.75 78.375C63.3333 76.7917 62.9167 75.1667 62.5 73.5C66.25 71.9167 69.2708 69.4583 71.5625 66.125C73.8542 62.7917 75 59.0833 75 55C75 49.5 73.0417 44.7917 69.125 40.875C65.2083 36.9583 60.5 35 55 35C50 35 45.625 36.625 41.875 39.875C38.125 43.125 35.9167 47.25 35.25 52.25C33.5833 51.8333 31.875 51.4583 30.125 51.125C28.375 50.7917 26.6667 50.4167 25 50C26.1667 42.6667 29.6042 36.6667 35.3125 32C41.0208 27.3333 47.5833 25 55 25C63.3333 25 70.4167 27.9167 76.25 33.75C82.0833 39.5833 85 46.6667 85 55C85 61.4167 83.1667 67.1875 79.5 72.3125C75.8333 77.4375 71 81.0833 65 83.25V83.25M55.125 55V55V55V55V55V55V55V55V55V55V55V55" fill="#4B91E2"/>
</svg>
