<svg width="59" height="59" viewBox="0 0 59 59" fill="none" xmlns="http://www.w3.org/2000/svg">
<path d="M26.6667 8V0H32V8H26.6667ZM26.6667 58.6667V50.6667H32V58.6667H26.6667ZM50.6667 32V26.6667H58.6667V32H50.6667ZM0 32V26.6667H8V32H0ZM47.2 15.2L43.4667 11.4667L48.1333 6.66667L52 10.5333L47.2 15.2ZM10.5333 52L6.66667 48.1333L11.4667 43.4667L15.2 47.2L10.5333 52ZM48.1333 52L43.4667 47.2L47.2 43.4667L52 48.1333L48.1333 52ZM11.4667 15.2L6.66667 10.5333L10.5333 6.66667L15.2 11.4667L11.4667 15.2ZM29.3333 45.3333C24.8889 45.3333 21.1111 43.7778 18 40.6667C14.8889 37.5556 13.3333 33.7778 13.3333 29.3333C13.3333 24.8889 14.8889 21.1111 18 18C21.1111 14.8889 24.8889 13.3333 29.3333 13.3333C33.7778 13.3333 37.5556 14.8889 40.6667 18C43.7778 21.1111 45.3333 24.8889 45.3333 29.3333C45.3333 33.7778 43.7778 37.5556 40.6667 40.6667C37.5556 43.7778 33.7778 45.3333 29.3333 45.3333Z" fill="#FBBF24"/>
</svg>
