<svg xmlns="http://www.w3.org/2000/svg" viewBox="0 0 64 64" fill="none">
  <!-- Back cloud -->
  <path d="M52 44H18C11.37 44 6 38.63 6 32C6 26.04 10.16 21.04 15.72 19.72C17.64 14.52 22.6 10.8 28.4 10.8C35.64 10.8 41.52 16.44 41.8 23.6C41.87 23.6 41.93 23.6 42 23.6C48.08 23.6 53 28.52 53 34.6C53 39.84 49.54 44.28 44.8 45.6L52 44Z" fill="#CBD5E1"/>
  <!-- Front cloud -->
  <path d="M50 52H16C9.37 52 4 46.63 4 40C4 34.04 8.16 29.04 13.72 27.72C15.64 22.52 20.6 18.8 26.4 18.8C33.64 18.8 39.52 24.44 39.8 31.6C39.87 31.6 39.93 31.6 40 31.6C46.08 31.6 51 36.52 51 42.6C51 47.84 47.54 52.28 42.8 53.6L50 52Z" fill="#94A3B8"/>
  <path d="M46 52H14C8.48 52 4 47.52 4 42C4 37.04 7.6 32.9 12.36 32.12C13.8 27.44 18.08 24 23.2 24C29.16 24 34 28.84 34 34.8V35C34 35 34.4 35 34.8 35C40.04 35.24 44.2 39.56 44 44.8C43.84 48.8 41.28 52 38 52H46Z" fill="#E2E8F0"/>
</svg>
