<svg xmlns="http://www.w3.org/2000/svg" viewBox="0 0 64 64" fill="none">
  <!-- Cloud shape -->
  <path d="M48 28H16C10.48 28 6 23.52 6 18C6 13.04 9.6 8.9 14.36 8.12C15.8 3.44 20.08 0 25.2 0C31.16 0 36 4.84 36 10.8V11C36 11 36.4 11 36.8 11C42.04 11.24 46.2 15.56 46 20.8C45.84 24.8 43.28 28 40 28H48Z" fill="#94A3B8" transform="translate(0, 14)"/>
  <!-- Fog lines -->
  <line x1="8" y1="42" x2="56" y2="42" stroke="#94A3B8" stroke-width="3" stroke-linecap="round"/>
  <line x1="12" y1="50" x2="52" y2="50" stroke="#94A3B8" stroke-width="3" stroke-linecap="round"/>
  <line x1="16" y1="58" x2="48" y2="58" stroke="#94A3B8" stroke-width="3" stroke-linecap="round"/>
</svg>
