<svg xmlns="http://www.w3.org/2000/svg" viewBox="0 0 64 64" fill="none">
  <!-- Sun (behind cloud) -->
  <circle cx="22" cy="24" r="10" fill="#F59E0B"/>
  <line x1="22" y1="8" x2="22" y2="14" stroke="#F59E0B" stroke-width="2.5" stroke-linecap="round"/>
  <line x1="22" y1="34" x2="22" y2="40" stroke="#F59E0B" stroke-width="2.5" stroke-linecap="round"/>
  <line x1="6" y1="24" x2="12" y2="24" stroke="#F59E0B" stroke-width="2.5" stroke-linecap="round"/>
  <line x1="32" y1="24" x2="38" y2="24" stroke="#F59E0B" stroke-width="2.5" stroke-linecap="round"/>
  <line x1="9.86" y1="11.86" x2="14.1" y2="16.1" stroke="#F59E0B" stroke-width="2.5" stroke-linecap="round"/>
  <line x1="29.9" y1="31.9" x2="34.14" y2="36.14" stroke="#F59E0B" stroke-width="2.5" stroke-linecap="round"/>
  <line x1="34.14" y1="11.86" x2="29.9" y2="16.1" stroke="#F59E0B" stroke-width="2.5" stroke-linecap="round"/>
  <!-- Cloud -->
  <path d="M50 42H20C14.48 42 10 37.52 10 32C10 27.04 13.6 22.9 18.36 22.12C19.8 17.44 24.08 14 29.2 14C35.16 14 40 18.84 40 24.8V25C40 25 40.4 25 40.8 25C46.04 25.24 50.2 29.56 50 34.8C49.84 38.8 47.28 42 44 42H50Z" fill="#E2E8F0"/>
  <path d="M48 44H18C13.04 44 9 40 9 35C9 30.52 12.2 26.82 16.4 26.1C17.6 21.86 21.46 18.8 26 18.8C31.36 18.8 35.7 23.06 35.8 28.4C36 28.4 36.2 28.4 36.4 28.4C41.04 28.4 44.8 32.12 44.8 36.76C44.8 40.76 42.24 44 38.8 44H48Z" fill="#CBD5E1"/>
  <ellipse cx="30" cy="40" rx="18" ry="12" fill="#F8FAFC"/>
  <path d="M14 40C14 33.37 19.37 28 26 28C29.6 28 32.84 29.56 35.1 32.06C36.34 31.4 37.74 31 39.2 31C43.42 31 46.86 34.26 47.2 38.4C47.2 38.6 47.2 38.8 47.2 39C47.2 39.34 47.18 39.68 47.14 40H14Z" fill="#F1F5F9"/>
</svg>
