<svg width="60" height="51" viewBox="0 0 60 51" fill="none" xmlns="http://www.w3.org/2000/svg">
<path d="M28.5 51C26 51 23.875 50.125 22.125 48.375C20.375 46.625 19.5 44.5 19.5 42H25.5C25.5 42.85 25.7875 43.5625 26.3625 44.1375C26.9375 44.7125 27.65 45 28.5 45C29.35 45 30.0625 44.7125 30.6375 44.1375C31.2125 43.5625 31.5 42.85 31.5 42C31.5 41.15 31.2125 40.4375 30.6375 39.8625C30.0625 39.2875 29.35 39 28.5 39H0V33H28.5C31 33 33.125 33.875 34.875 35.625C36.625 37.375 37.5 39.5 37.5 42C37.5 44.5 36.625 46.625 34.875 48.375C33.125 50.125 31 51 28.5 51ZM0 21V15H40.5C41.8 15 42.875 14.575 43.725 13.725C44.575 12.875 45 11.8 45 10.5C45 9.2 44.575 8.125 43.725 7.275C42.875 6.425 41.8 6 40.5 6C39.2 6 38.125 6.425 37.275 7.275C36.425 8.125 36 9.2 36 10.5H30C30 7.55 31.0125 5.0625 33.0375 3.0375C35.0625 1.0125 37.55 0 40.5 0C43.45 0 45.9375 1.0125 47.9625 3.0375C49.9875 5.0625 51 7.55 51 10.5C51 13.45 49.9875 15.9375 47.9625 17.9625C45.9375 19.9875 43.45 21 40.5 21H0ZM49.5 45V39C50.8 39 51.875 38.575 52.725 37.725C53.575 36.875 54 35.8 54 34.5C54 33.2 53.575 32.125 52.725 31.275C51.875 30.425 50.8 30 49.5 30H0V24H49.5C52.45 24 54.9375 25.0125 56.9625 27.0375C58.9875 29.0625 60 31.55 60 34.5C60 37.45 58.9875 39.9375 56.9625 41.9625C54.9375 43.9875 52.45 45 49.5 45Z" fill="#2B3BEE" fill-opacity="0.2"/>
</svg>
