<svg width="110" height="110" viewBox="0 0 110 110" fill="none" xmlns="http://www.w3.org/2000/svg">
<path d="M50 20V0H60V20H50ZM83.25 33.75L76.375 26.875L90.375 12.5L97.375 19.625L83.25 33.75ZM90 60V50H110V60H90ZM50 110V90H60V110H50ZM26.75 33.5L12.5 19.625L19.625 12.625L33.75 26.75L26.75 33.5ZM90.25 97.5L76.375 83.125L83.125 76.375L97.375 90.125L90.25 97.5ZM0 60V50H20V60H0ZM19.625 97.5L12.625 90.375L26.625 76.375L30.25 79.75L33.875 83.25L19.625 97.5ZM55 85C46.6667 85 39.5833 82.0833 33.75 76.25C27.9167 70.4167 25 63.3333 25 55C25 46.6667 27.9167 39.5833 33.75 33.75C39.5833 27.9167 46.6667 25 55 25C63.3333 25 70.4167 27.9167 76.25 33.75C82.0833 39.5833 85 46.6667 85 55C85 63.3333 82.0833 70.4167 76.25 76.25C70.4167 82.0833 63.3333 85 55 85ZM55 75C60.5 75 65.2083 73.0417 69.125 69.125C73.0417 65.2083 75 60.5 75 55C75 49.5 73.0417 44.7917 69.125 40.875C65.2083 36.9583 60.5 35 55 35C49.5 35 44.7917 36.9583 40.875 40.875C36.9583 44.7917 35 49.5 35 55C35 60.5 36.9583 65.2083 40.875 69.125C44.7917 73.0417 49.5 75 55 75Z" fill="#2B3BEE" fill-opacity="0.4"/>
</svg>
