<svg width="256" height="272" viewBox="0 0 256 272" fill="none" xmlns="http://www.w3.org/2000/svg">
<rect width="256" height="256" rx="64" fill="#2B3BEE" fill-opacity="0.1"/>
<path d="M128.009 178.666C121.001 178.666 114.414 177.337 108.248 174.677C102.082 172.018 96.7186 168.408 92.1574 163.849C87.5962 159.29 83.9853 153.929 81.3246 147.765C78.6638 141.602 77.3335 135.017 77.3335 128.009C77.3335 121.001 78.6633 114.414 81.3228 108.248C83.9823 102.082 87.5917 96.7186 92.1508 92.1574C96.71 87.5962 102.071 83.9853 108.235 81.3246C114.398 78.6639 120.983 77.3335 127.991 77.3335C134.999 77.3335 141.586 78.6633 147.752 81.3228C153.918 83.9823 159.281 87.5917 163.843 92.1509C168.404 96.71 172.015 102.071 174.675 108.235C177.336 114.398 178.666 120.983 178.666 127.991C178.666 134.999 177.337 141.586 174.677 147.752C172.018 153.918 168.408 159.281 163.849 163.843C159.29 168.404 153.929 172.015 147.765 174.675C141.602 177.336 135.017 178.666 128.009 178.666ZM122.667 170.4V160C119.733 160 117.222 158.956 115.133 156.867C113.044 154.778 112 152.267 112 149.333V144L86.4 118.4C86.1333 120 85.8889 121.6 85.6666 123.2C85.4444 124.8 85.3333 126.4 85.3333 128C85.3333 138.756 88.8666 148.178 95.9333 156.267C103 164.356 111.911 169.067 122.667 170.4ZM159.467 156.8C163.111 152.8 165.889 148.333 167.8 143.4C169.711 138.467 170.667 133.327 170.667 127.981C170.667 119.249 168.253 111.274 163.426 104.057C158.598 96.8394 152.123 91.6308 144 88.4308V90.6667C144 93.6 142.956 96.1111 140.867 98.2C138.778 100.289 136.267 101.333 133.333 101.333H122.667V112C122.667 113.511 122.156 114.778 121.133 115.8C120.111 116.822 118.844 117.333 117.333 117.333H106.667V128H138.667C140.178 128 141.444 128.511 142.467 129.533C143.489 130.556 144 131.822 144 133.333V149.333H149.333C151.644 149.333 153.733 150.022 155.6 151.4C157.467 152.778 158.756 154.578 159.467 156.8Z" fill="#2B3BEE"/>
<rect x="105.96" y="42" width="88" height="88" rx="21" fill="white"/>
<rect x="105.96" y="42" width="88" height="88" rx="21" stroke="white" stroke-width="4"/>
<path d="M175.293 116L154.293 95C152.627 96.3333 150.71 97.3889 148.543 98.1667C146.377 98.9444 144.071 99.3333 141.627 99.3333C135.571 99.3333 130.446 97.2361 126.252 93.0417C122.057 88.8472 119.96 83.7222 119.96 77.6667C119.96 71.6111 122.057 66.4861 126.252 62.2917C130.446 58.0972 135.571 56 141.627 56C147.682 56 152.807 58.0972 157.002 62.2917C161.196 66.4861 163.293 71.6111 163.293 77.6667C163.293 80.1111 162.904 82.4167 162.127 84.5833C161.349 86.75 160.293 88.6667 158.96 90.3333L179.96 111.333L175.293 116ZM141.627 92.6667C145.793 92.6667 149.335 91.2083 152.252 88.2917C155.168 85.375 156.627 81.8333 156.627 77.6667C156.627 73.5 155.168 69.9583 152.252 67.0417C149.335 64.125 145.793 62.6667 141.627 62.6667C137.46 62.6667 133.918 64.125 131.002 67.0417C128.085 69.9583 126.627 73.5 126.627 77.6667C126.627 81.8333 128.085 85.375 131.002 88.2917C133.918 91.2083 137.46 92.6667 141.627 92.6667Z" fill="#2B3BEE"/>
</svg>
